<svg width="43" height="43" viewBox="0 0 43 43" fill="none" xmlns="http://www.w3.org/2000/svg">
<rect x="0.5" y="0.5" width="42" height="42" rx="21" fill="white"/>
<rect x="0.5" y="0.5" width="42" height="42" rx="21" stroke="white"/>
<path d="M21.5 1C10.1737 1 1 10.1737 1 21.5C1 30.5712 6.86812 38.2331 15.0169 40.9494C16.0419 41.1288 16.4262 40.5138 16.4262 39.9756C16.4262 39.4888 16.4006 37.8744 16.4006 36.1575C11.25 37.1056 9.9175 34.9019 9.5075 33.7487C9.27687 33.1594 8.2775 31.34 7.40625 30.8531C6.68875 30.4687 5.66375 29.5206 7.38063 29.495C8.995 29.4694 10.1481 30.9812 10.5325 31.5962C12.3775 34.6969 15.3244 33.8256 16.5031 33.2875C16.6825 31.955 17.2206 31.0581 17.81 30.5456C13.2487 30.0331 8.4825 28.265 8.4825 20.4237C8.4825 18.1944 9.27688 16.3494 10.5838 14.9144C10.3788 14.4019 9.66125 12.3006 10.7887 9.48187C10.7887 9.48187 12.5056 8.94375 16.4262 11.5831C18.0662 11.1219 19.8088 10.8912 21.5513 10.8912C23.2938 10.8912 25.0363 11.1219 26.6763 11.5831C30.5969 8.91813 32.3138 9.48187 32.3138 9.48187C33.4413 12.3006 32.7238 14.4019 32.5188 14.9144C33.8256 16.3494 34.62 18.1687 34.62 20.4237C34.62 28.2906 29.8281 30.0331 25.2669 30.5456C26.01 31.1862 26.6506 32.4163 26.6506 34.3381C26.6506 37.08 26.625 39.2838 26.625 39.9756C26.625 40.5138 27.0094 41.1544 28.0344 40.9494C32.1042 39.5758 35.6407 36.9604 38.1461 33.4714C40.6514 29.9823 41.9993 25.7954 42 21.5C42 10.1737 32.8263 1 21.5 1Z" fill="black"/>
</svg>
