<svg width="36" height="23" viewBox="0 0 36 23" fill="none" xmlns="http://www.w3.org/2000/svg">
<path d="M35.2618 11.4836C35.2618 10.3921 34.9657 9.6389 34.3734 9.22413L24.6238 0.906488C24.1379 0.491724 23.7431 0.284327 23.4393 0.284327C23.2115 0.284327 22.9913 0.415298 22.7787 0.677269C22.5661 0.939241 22.3307 1.37586 22.0725 1.98713C21.7992 2.62025 21.6625 3.15509 21.6625 3.59171C21.6625 4.05016 21.8296 4.47588 22.1637 4.86882C22.2852 5.02165 22.4902 5.21812 22.7787 5.45827L29.8403 11.4836C29.6581 11.6583 27.3042 13.6667 22.7787 17.509C22.2927 17.9674 21.9814 18.3713 21.8447 18.7206C21.7385 18.9608 21.6853 19.2446 21.6853 19.572C21.6853 19.9213 21.8296 20.4344 22.1181 21.1111C22.5585 22.1808 22.9837 22.7157 23.3938 22.7157C23.6216 22.7157 23.819 22.6611 23.986 22.552C24.1379 22.4865 24.6011 22.1153 25.3756 21.4386C26.1501 20.7618 29.1418 18.2076 34.3507 13.7759C34.9581 13.3393 35.2618 12.5752 35.2618 11.4836Z" fill="url(#paint0_linear_1816_964)"/>
<path d="M34.3621 9.22413C34.9544 9.6389 35.2505 10.3921 35.2505 11.4836C35.2505 12.5752 34.9468 13.3393 34.3393 13.7759C29.1304 18.2076 26.1387 20.7618 25.3642 21.4386C24.5897 22.1153 24.1265 22.4865 23.9747 22.552C23.8076 22.6611 23.6102 22.7157 23.3824 22.7157C22.9724 22.7157 22.5472 22.1808 22.1068 21.1111C21.8182 20.4344 21.6739 19.9213 21.6739 19.572C21.6739 19.2446 21.7271 18.9608 21.8334 18.7206C21.9701 18.3713 22.2814 17.9674 22.7674 17.509C27.2929 13.6667 29.6468 11.6583 29.829 11.4836C32.5911 9.11839 32.802 7.99973 32.5187 7.65521L32.4298 7.57959C32.4625 7.59853 32.4927 7.62361 32.5187 7.65521L34.3621 9.22413Z" fill="#34D4C0"/>
<path d="M0 11.4836C0 10.3921 0.296132 9.6389 0.888398 9.22413L10.638 0.906488C11.124 0.491724 11.5188 0.284327 11.8225 0.284327C12.0503 0.284327 12.2705 0.415298 12.4831 0.677269C12.6957 0.939241 12.9311 1.37586 13.1893 1.98713C13.4627 2.62025 13.5993 3.15509 13.5993 3.59171C13.5993 4.05016 13.4323 4.47588 13.0982 4.86882C12.9767 5.02165 12.7717 5.21812 12.4831 5.45827L5.42149 11.4836C5.60373 11.6583 7.95761 13.6667 12.4831 17.509C12.9691 17.9674 13.2804 18.3713 13.4171 18.7206C13.5234 18.9608 13.5765 19.2446 13.5765 19.572C13.5765 19.9213 13.4323 20.4344 13.1437 21.1111C12.7033 22.1808 12.2781 22.7157 11.8681 22.7157C11.6403 22.7157 11.4429 22.6611 11.2758 22.552C11.124 22.4865 10.6608 22.1153 9.88627 21.4386C9.11177 20.7618 6.12007 18.2076 0.911176 13.7759C0.303725 13.3393 0 12.5752 0 11.4836Z" fill="url(#paint1_linear_1816_964)"/>
<path d="M0.899874 9.22413C0.307608 9.6389 0.0114746 10.3921 0.0114746 11.4836C0.0114746 12.5752 0.3152 13.3393 0.922651 13.7759C6.13155 18.2076 9.12324 20.7618 9.89775 21.4386C10.6723 22.1153 11.1354 22.4865 11.2873 22.552C11.4543 22.6611 11.6518 22.7157 11.8796 22.7157C12.2896 22.7157 12.7148 22.1808 13.1552 21.1111C13.4437 20.4344 13.588 19.9213 13.588 19.572C13.588 19.2446 13.5349 18.9608 13.4286 18.7206C13.2919 18.3713 12.9806 17.9674 12.4946 17.509C7.96909 13.6667 5.6152 11.6583 5.43297 11.4836C2.67089 9.11839 2.45991 7.99973 2.74329 7.65521L2.83214 7.57959C2.79942 7.59853 2.76928 7.62361 2.74329 7.65521L0.899874 9.22413Z" fill="#34D4C0"/>
<defs>
<linearGradient id="paint0_linear_1816_964" x1="21.6625" y1="1.1131" x2="37.8699" y2="15.3197" gradientUnits="userSpaceOnUse">
<stop stop-color="#34D4C0"/>
<stop offset="1" stop-color="#1DB8A7"/>
</linearGradient>
<linearGradient id="paint1_linear_1816_964" x1="13.5993" y1="1.1131" x2="-2.60807" y2="15.3197" gradientUnits="userSpaceOnUse">
<stop stop-color="#34D4C0"/>
<stop offset="1" stop-color="#1DB8A7"/>
</linearGradient>
</defs>
</svg>
