<svg width="152" height="56" viewBox="0 0 152 56" fill="none" xmlns="http://www.w3.org/2000/svg">
<path d="M42.1018 17.0826V20.1188H46.1225V22.063H42.1018V26.6133H39.3799V15.1467H46.9168L46.6355 17.0826H42.1018ZM56.8091 18.6297C56.8091 19.1757 56.707 19.6528 56.503 20.0609C56.2989 20.4691 56.0231 20.8138 55.6756 21.0951C55.3282 21.3764 54.9393 21.6025 54.5091 21.7735L57.5123 26.6133H54.4429L51.961 22.2285H51.1916V26.6133H48.478V15.1467H52.0851C53.646 15.1467 54.8235 15.4307 55.6177 15.9988C56.412 16.5669 56.8091 17.4438 56.8091 18.6297ZM54.0127 18.6297C54.0127 18.0781 53.85 17.6782 53.5246 17.4301C53.2047 17.1763 52.7276 17.0495 52.0934 17.0495H51.1916V20.367H52.2009C52.7911 20.367 53.2406 20.2291 53.5494 19.9534C53.8583 19.6776 54.0127 19.2364 54.0127 18.6297ZM66.9992 20.8717C66.9992 22.0851 66.8255 23.1441 66.478 24.0486C66.1305 24.9476 65.6148 25.6481 64.9309 26.15C64.2525 26.6464 63.4114 26.8946 62.4076 26.8946C61.4093 26.8946 60.5682 26.6519 59.8843 26.1665C59.2003 25.6757 58.6847 24.9807 58.3372 24.0817C57.9897 23.1827 57.816 22.1127 57.816 20.8717C57.816 19.6583 57.9897 18.6021 58.3372 17.7031C58.6847 16.804 59.2003 16.1063 59.8843 15.61C60.5682 15.108 61.4093 14.8571 62.4076 14.8571C63.4114 14.8571 64.2525 15.0998 64.9309 15.5851C65.6148 16.0705 66.1305 16.7627 66.478 17.6617C66.8255 18.5607 66.9992 19.6307 66.9992 20.8717ZM64.2194 20.8717C64.2194 19.4597 64.0788 18.4339 63.7975 17.7941C63.5162 17.1543 63.0529 16.8344 62.4076 16.8344C61.7623 16.8344 61.299 17.157 61.0177 17.8023C60.7364 18.4421 60.5958 19.4653 60.5958 20.8717C60.5958 22.2837 60.7392 23.3095 61.026 23.9493C61.3128 24.5891 61.7733 24.909 62.4076 24.909C63.0694 24.909 63.5355 24.5864 63.8058 23.941C64.0815 23.2902 64.2194 22.2671 64.2194 20.8717ZM73.1437 26.6133L70.124 17.3887C70.1626 17.6369 70.204 17.9375 70.2481 18.2905C70.2978 18.6379 70.3447 19.0268 70.3888 19.457C70.4329 19.8817 70.4688 20.3339 70.4963 20.8138C70.5239 21.2936 70.5377 21.7845 70.5377 22.2864V26.6133H68.2295V15.1467H71.6132L74.5419 24.3216C74.4812 23.9741 74.4178 23.5605 74.3516 23.0806C74.291 22.5953 74.2386 22.0548 74.1944 21.4591C74.1503 20.8634 74.1283 20.2236 74.1283 19.5397V15.1467H76.4365V26.6133H73.1437ZM83.5986 17.2232V26.6133H80.885V17.2232H77.6667V15.1467H86.9493L86.668 17.2232H83.5986ZM91.4723 17.0826V19.8375H95.4434V21.7404H91.4723V24.6691H96.2624V26.6133H88.7587V15.1467H96.2542L95.9811 17.0826H91.4723ZM102.92 26.6133L99.9002 17.3887C99.9388 17.6369 99.9802 17.9375 100.024 18.2905C100.074 18.6379 100.121 19.0268 100.165 19.457C100.209 19.8817 100.245 20.3339 100.272 20.8138C100.3 21.2936 100.314 21.7845 100.314 22.2864V26.6133H98.0056V15.1467H101.389L104.318 24.3216C104.257 23.9741 104.194 23.5605 104.128 23.0806C104.067 22.5953 104.015 22.0548 103.971 21.4591C103.926 20.8634 103.904 20.2236 103.904 19.5397V15.1467H106.213V26.6133H102.92ZM113.764 20.8221C113.764 20.0499 113.697 19.4211 113.565 18.9358C113.438 18.4504 113.259 18.0754 113.027 17.8106C112.801 17.5459 112.534 17.3639 112.225 17.2646C111.916 17.1653 111.582 17.1157 111.224 17.1157H110.645V24.6525H111.224C111.599 24.6525 111.941 24.5946 112.25 24.4788C112.564 24.3575 112.834 24.1561 113.06 23.8749C113.287 23.5881 113.46 23.1965 113.582 22.7001C113.703 22.2037 113.764 21.5777 113.764 20.8221ZM116.577 20.8221C116.577 21.7542 116.477 22.5539 116.279 23.2213C116.08 23.8831 115.802 24.4347 115.443 24.8759C115.09 25.3172 114.679 25.6646 114.21 25.9183C113.742 26.172 113.237 26.3513 112.696 26.4561C112.156 26.5609 111.599 26.6133 111.025 26.6133H107.931V15.1467H110.827C111.56 15.1467 112.269 15.2239 112.953 15.3783C113.642 15.5272 114.257 15.8058 114.798 16.2139C115.344 16.6165 115.777 17.1901 116.097 17.9347C116.417 18.6738 116.577 19.6362 116.577 20.8221ZM44.2445 39.1468C44.2445 38.7442 44.1646 38.4271 44.0046 38.1954C43.8502 37.9582 43.6296 37.79 43.3428 37.6907C43.0615 37.5915 42.7305 37.5418 42.35 37.5418H41.2331V40.636H42.2341C42.4989 40.636 42.7498 40.6167 42.987 40.5781C43.2297 40.5395 43.4448 40.4678 43.6323 40.363C43.8254 40.2582 43.9743 40.1093 44.0791 39.9162C44.1894 39.7177 44.2445 39.4612 44.2445 39.1468ZM43.8143 34.3484C43.8143 33.8961 43.6709 33.5707 43.3841 33.3721C43.1028 33.1681 42.6644 33.066 42.0687 33.066H41.2331V35.7217H42.1514C42.7361 35.7217 43.158 35.6142 43.4172 35.3991C43.682 35.184 43.8143 34.8337 43.8143 34.3484ZM47.0409 39.2544C47.0409 39.9162 46.914 40.465 46.6603 40.9007C46.4066 41.3365 46.0591 41.6784 45.6179 41.9266C45.1766 42.1748 44.672 42.3513 44.1039 42.4561C43.5413 42.5609 42.9484 42.6133 42.3252 42.6133H38.5195V31.1467H42.1514C42.7416 31.1467 43.2986 31.1963 43.8226 31.2956C44.3521 31.3893 44.8209 31.5493 45.229 31.7754C45.6372 31.996 45.9571 32.2966 46.1887 32.6772C46.4259 33.0522 46.5445 33.5183 46.5445 34.0754C46.5445 34.5331 46.448 34.9303 46.2549 35.2667C46.0619 35.5976 45.8054 35.8706 45.4855 36.0857C45.1656 36.2953 44.8181 36.447 44.4431 36.5408C44.8512 36.607 45.2539 36.7366 45.651 36.9296C46.0536 37.1171 46.3845 37.3984 46.6438 37.7735C46.9085 38.1485 47.0409 38.6422 47.0409 39.2544ZM56.8091 34.6297C56.8091 35.1757 56.707 35.6528 56.503 36.0609C56.2989 36.4691 56.0231 36.8138 55.6756 37.0951C55.3282 37.3764 54.9393 37.6025 54.5091 37.7735L57.5123 42.6133H54.4429L51.961 38.2285H51.1916V42.6133H48.478V31.1467H52.0851C53.646 31.1467 54.8235 31.4307 55.6177 31.9988C56.412 32.5669 56.8091 33.4438 56.8091 34.6297ZM54.0127 34.6297C54.0127 34.0781 53.85 33.6782 53.5246 33.4301C53.2047 33.1763 52.7276 33.0495 52.0934 33.0495H51.1916V36.367H52.2009C52.7911 36.367 53.2406 36.2291 53.5494 35.9534C53.8583 35.6776 54.0127 35.2364 54.0127 34.6297ZM64.0622 40.1396H60.7033L60.0994 42.6133H57.2617L60.7695 31.1467H64.0622L67.57 42.6133H64.6662L64.0622 40.1396ZM61.1335 38.1706H63.6155L62.3745 33.0991L61.1335 38.1706ZM76.7674 39.2626C76.7674 39.9741 76.5799 40.6029 76.2048 41.1489C75.8353 41.695 75.303 42.1224 74.6081 42.4313C73.9132 42.7401 73.0776 42.8946 72.1013 42.8946C71.0203 42.8946 70.113 42.7374 69.3794 42.423C68.6514 42.1031 68.0475 41.7087 67.5676 41.2399L68.941 39.7177C69.3657 40.0872 69.8345 40.374 70.3474 40.5781C70.8603 40.7766 71.4229 40.8759 72.0351 40.8759C72.4157 40.8759 72.7494 40.8208 73.0362 40.7105C73.323 40.6001 73.5464 40.4402 73.7063 40.2306C73.8663 40.021 73.9462 39.7673 73.9462 39.4695C73.9462 39.1882 73.8828 38.951 73.756 38.758C73.6291 38.5649 73.414 38.3912 73.1107 38.2368C72.8128 38.0823 72.3964 37.9251 71.8614 37.7652C70.9679 37.4894 70.2481 37.1861 69.7021 36.8551C69.1616 36.5242 68.7672 36.1409 68.519 35.7052C68.2764 35.2695 68.155 34.762 68.155 34.1829C68.155 33.4825 68.3481 32.884 68.7341 32.3876C69.1257 31.8912 69.6497 31.5134 70.306 31.2542C70.9624 30.9895 71.6849 30.8571 72.4736 30.8571C73.3616 30.8571 74.1448 30.9867 74.8232 31.2459C75.5016 31.4996 76.089 31.8637 76.5854 32.338L75.303 33.8106C74.917 33.4852 74.5005 33.2453 74.0538 33.0909C73.607 32.9309 73.152 32.8509 72.6887 32.8509C72.3468 32.8509 72.0462 32.8951 71.7869 32.9833C71.5277 33.066 71.3264 33.1901 71.183 33.3556C71.0396 33.5211 70.9679 33.7279 70.9679 33.9761C70.9679 34.2188 71.0368 34.4228 71.1747 34.5883C71.3126 34.7538 71.5525 34.911 71.8945 35.0599C72.2365 35.2033 72.7108 35.3715 73.3175 35.5645C74.04 35.7852 74.6577 36.0499 75.1707 36.3588C75.6891 36.6621 76.0835 37.0454 76.3537 37.5087C76.6295 37.972 76.7674 38.5567 76.7674 39.2626ZM85.9813 31.1467V33.1322H83.6152V40.6194H85.9813V42.6133H78.5354V40.6194H80.9016V33.1322H78.5354V31.1467H85.9813ZM88.7587 42.6133V31.1467H91.4723V40.4705H96.4444L96.1632 42.6133H88.7587Z" fill="#00FFBB"/>
<path d="M151.714 27.9537C151.714 25.2454 150.98 23.3765 149.51 22.3474L125.319 1.70927C124.113 0.680141 123.134 0.165539 122.38 0.165539C121.815 0.165539 121.268 0.490509 120.741 1.14053C120.213 1.79054 119.629 2.87391 118.989 4.39061C118.31 5.96154 117.971 7.28861 117.971 8.37197C117.971 9.50948 118.386 10.5658 119.215 11.5408C119.516 11.92 120.025 12.4075 120.741 13.0033L138.262 27.9537C137.81 28.3871 131.97 33.3706 120.741 42.9041C119.535 44.0416 118.763 45.0438 118.423 45.9105C118.16 46.5063 118.028 47.2105 118.028 48.023C118.028 48.8897 118.386 50.1627 119.102 51.8418C120.194 54.4961 121.249 55.8232 122.267 55.8232C122.832 55.8232 123.322 55.6878 123.736 55.417C124.113 55.2545 125.262 54.3336 127.184 52.6544C129.106 50.9752 136.529 44.6375 149.454 33.6414C150.961 32.558 151.714 30.6622 151.714 27.9537Z" fill="url(#paint0_linear_0_1)"/>
<path d="M149.482 22.3474C150.951 23.3765 151.686 25.2454 151.686 27.9537C151.686 30.6622 150.933 32.558 149.425 33.6414C136.501 44.6375 129.078 50.9752 127.156 52.6544C125.234 54.3336 124.085 55.2545 123.708 55.417C123.294 55.6878 122.804 55.8232 122.239 55.8232C121.221 55.8232 120.166 54.4961 119.073 51.8418C118.357 50.1627 117.999 48.8897 117.999 48.023C117.999 47.2105 118.131 46.5063 118.395 45.9105C118.734 45.0438 119.507 44.0416 120.712 42.9041C131.941 33.3705 137.782 28.3871 138.234 27.9537C145.088 22.085 145.611 19.3093 144.908 18.4545L144.687 18.2669C144.769 18.3139 144.843 18.3761 144.908 18.4545L149.482 22.3474Z" fill="#00FFB8"/>
<path d="M149.482 22.3474C150.951 23.3765 151.686 25.2454 151.686 27.9537C151.686 30.6622 150.933 32.558 149.425 33.6414C136.501 44.6375 129.078 50.9752 127.156 52.6544C125.234 54.3336 124.085 55.2545 123.708 55.417C123.294 55.6878 122.804 55.8232 122.239 55.8232C121.221 55.8232 120.166 54.4961 119.073 51.8418C118.357 50.1627 117.999 48.8897 117.999 48.023C117.999 47.2105 118.131 46.5063 118.395 45.9105C118.734 45.0438 119.507 44.0416 120.712 42.9041C131.941 33.3705 137.782 28.3871 138.234 27.9537C145.088 22.085 145.611 19.3093 144.908 18.4545L144.687 18.2669C144.769 18.3139 144.843 18.3761 144.908 18.4545L149.482 22.3474Z" fill="url(#paint1_linear_0_1)"/>
<path d="M151.714 27.9537C151.714 25.2454 150.98 23.3765 149.51 22.3474L125.319 1.70927C124.113 0.680141 123.134 0.165539 122.38 0.165539C121.815 0.165539 121.268 0.490509 120.741 1.14053C120.213 1.79054 119.629 2.87391 118.989 4.39061C118.31 5.96154 117.971 7.28861 117.971 8.37197C117.971 9.50948 118.386 10.5658 119.215 11.5408C119.516 11.92 120.025 12.4075 120.741 13.0033L138.262 27.9537C137.81 28.3871 131.97 33.3706 120.741 42.9041C119.535 44.0416 118.763 45.0438 118.423 45.9105C118.16 46.5063 118.028 47.2105 118.028 48.023C118.028 48.8897 118.386 50.1627 119.102 51.8418C120.194 54.4961 121.249 55.8232 122.267 55.8232C122.832 55.8232 123.322 55.6878 123.736 55.417C124.113 55.2545 125.262 54.3336 127.184 52.6544C129.106 50.9752 136.529 44.6375 149.454 33.6414C150.961 32.558 151.714 30.6622 151.714 27.9537Z" fill="url(#paint2_linear_0_1)"/>
<path d="M149.482 22.3474C150.951 23.3765 151.686 25.2454 151.686 27.9537C151.686 30.6622 150.933 32.558 149.425 33.6414C136.501 44.6375 129.078 50.9752 127.156 52.6544C125.234 54.3336 124.085 55.2545 123.708 55.417C123.294 55.6878 122.804 55.8232 122.239 55.8232C121.221 55.8232 120.166 54.4961 119.073 51.8418C118.357 50.1627 117.999 48.8897 117.999 48.023C117.999 47.2105 118.131 46.5063 118.395 45.9105C118.734 45.0438 119.507 44.0416 120.712 42.9041C131.941 33.3705 137.782 28.3871 138.234 27.9537C145.088 22.085 145.611 19.3093 144.908 18.4545L144.687 18.2669C144.769 18.3139 144.843 18.3761 144.908 18.4545L149.482 22.3474Z" fill="#00FFB8"/>
<path d="M149.482 22.3474C150.951 23.3765 151.686 25.2454 151.686 27.9537C151.686 30.6622 150.933 32.558 149.425 33.6414C136.501 44.6375 129.078 50.9752 127.156 52.6544C125.234 54.3336 124.085 55.2545 123.708 55.417C123.294 55.6878 122.804 55.8232 122.239 55.8232C121.221 55.8232 120.166 54.4961 119.073 51.8418C118.357 50.1627 117.999 48.8897 117.999 48.023C117.999 47.2105 118.131 46.5063 118.395 45.9105C118.734 45.0438 119.507 44.0416 120.712 42.9041C131.941 33.3705 137.782 28.3871 138.234 27.9537C145.088 22.085 145.611 19.3093 144.908 18.4545L144.687 18.2669C144.769 18.3139 144.843 18.3761 144.908 18.4545L149.482 22.3474Z" fill="url(#paint3_linear_0_1)"/>
<path d="M0.221191 27.9537C0.221191 25.2454 0.955968 23.3765 2.42552 22.3474L26.6167 1.70927C27.8224 0.680141 28.8021 0.165539 29.5557 0.165539C30.121 0.165539 30.6673 0.490509 31.1949 1.14053C31.7224 1.79054 32.3065 2.87391 32.947 4.39061C33.6253 5.96154 33.9644 7.28861 33.9644 8.37197C33.9644 9.50948 33.5499 10.5658 32.7209 11.5408C32.4195 11.92 31.9108 12.4075 31.1949 13.0033L13.6732 27.9537C14.1254 28.3871 19.966 33.3706 31.1949 42.9041C32.4007 44.0416 33.1731 45.0438 33.5123 45.9105C33.776 46.5063 33.9079 47.2105 33.9079 48.023C33.9079 48.8897 33.5499 50.1627 32.834 51.8418C31.7413 54.4961 30.6862 55.8232 29.6688 55.8232C29.1036 55.8232 28.6137 55.6878 28.1992 55.417C27.8224 55.2545 26.6732 54.3336 24.7514 52.6544C22.8297 50.9752 15.4066 44.6375 2.48204 33.6414C0.974807 32.558 0.221191 30.6622 0.221191 27.9537Z" fill="url(#paint4_linear_0_1)"/>
<path d="M0.221191 27.9537C0.221191 25.2454 0.955968 23.3765 2.42552 22.3474L26.6167 1.70927C27.8224 0.680141 28.8021 0.165539 29.5557 0.165539C30.121 0.165539 30.6673 0.490509 31.1949 1.14053C31.7224 1.79054 32.3065 2.87391 32.947 4.39061C33.6253 5.96154 33.9644 7.28861 33.9644 8.37197C33.9644 9.50948 33.5499 10.5658 32.7209 11.5408C32.4195 11.92 31.9108 12.4075 31.1949 13.0033L13.6732 27.9537C14.1254 28.3871 19.966 33.3706 31.1949 42.9041C32.4007 44.0416 33.1731 45.0438 33.5123 45.9105C33.776 46.5063 33.9079 47.2105 33.9079 48.023C33.9079 48.8897 33.5499 50.1627 32.834 51.8418C31.7413 54.4961 30.6862 55.8232 29.6688 55.8232C29.1036 55.8232 28.6137 55.6878 28.1992 55.417C27.8224 55.2545 26.6732 54.3336 24.7514 52.6544C22.8297 50.9752 15.4066 44.6375 2.48204 33.6414C0.974807 32.558 0.221191 30.6622 0.221191 27.9537Z" fill="url(#paint5_linear_0_1)"/>
<path d="M2.45385 22.3474C0.984291 23.3765 0.249512 25.2454 0.249512 27.9537C0.249512 30.6622 1.00313 32.558 2.51036 33.6414C15.4349 44.6375 22.858 50.9752 24.7798 52.6544C26.7015 54.3336 27.8508 55.2545 28.2275 55.417C28.642 55.6878 29.1319 55.8232 29.6971 55.8232C30.7145 55.8232 31.7696 54.4961 32.8623 51.8418C33.5783 50.1627 33.9362 48.8897 33.9362 48.023C33.9362 47.2105 33.8043 46.5063 33.5406 45.9105C33.2014 45.0438 32.429 44.0416 31.2232 42.9041C19.9943 33.3705 14.1537 28.3871 13.7016 27.9537C6.84817 22.085 6.32469 19.3093 7.02781 18.4545L7.24826 18.2669C7.16708 18.3139 7.09229 18.3761 7.02781 18.4545L2.45385 22.3474Z" fill="#00FFB8"/>
<path d="M2.45385 22.3474C0.984291 23.3765 0.249512 25.2454 0.249512 27.9537C0.249512 30.6622 1.00313 32.558 2.51036 33.6414C15.4349 44.6375 22.858 50.9752 24.7798 52.6544C26.7015 54.3336 27.8508 55.2545 28.2275 55.417C28.642 55.6878 29.1319 55.8232 29.6971 55.8232C30.7145 55.8232 31.7696 54.4961 32.8623 51.8418C33.5783 50.1627 33.9362 48.8897 33.9362 48.023C33.9362 47.2105 33.8043 46.5063 33.5406 45.9105C33.2014 45.0438 32.429 44.0416 31.2232 42.9041C19.9943 33.3705 14.1537 28.3871 13.7016 27.9537C6.84817 22.085 6.32469 19.3093 7.02781 18.4545L7.24826 18.2669C7.16708 18.3139 7.09229 18.3761 7.02781 18.4545L2.45385 22.3474Z" fill="#00FFB8"/>
<defs>
<linearGradient id="paint0_linear_0_1" x1="117.971" y1="2.22192" x2="158.186" y2="37.4719" gradientUnits="userSpaceOnUse">
<stop stop-color="#00FFB8"/>
<stop offset="1" stop-color="#09BC8A"/>
</linearGradient>
<linearGradient id="paint1_linear_0_1" x1="134.843" y1="55.8232" x2="151.686" y2="21.8919" gradientUnits="userSpaceOnUse">
<stop stop-color="#00FFB8"/>
<stop offset="1" stop-color="#00FFB8" stop-opacity="0"/>
</linearGradient>
<linearGradient id="paint2_linear_0_1" x1="117.971" y1="2.22192" x2="158.186" y2="37.4719" gradientUnits="userSpaceOnUse">
<stop stop-color="#00FFB8"/>
<stop offset="1" stop-color="#09BC8A"/>
</linearGradient>
<linearGradient id="paint3_linear_0_1" x1="134.843" y1="55.8232" x2="151.686" y2="21.8919" gradientUnits="userSpaceOnUse">
<stop stop-color="#00FFB8"/>
<stop offset="1" stop-color="#00FFB8" stop-opacity="0"/>
</linearGradient>
<linearGradient id="paint4_linear_0_1" x1="33.9644" y1="2.22192" x2="-6.25006" y2="37.4719" gradientUnits="userSpaceOnUse">
<stop stop-color="#00FFB8"/>
<stop offset="1" stop-color="#09BC8A"/>
</linearGradient>
<linearGradient id="paint5_linear_0_1" x1="33.9644" y1="2.22192" x2="-6.25006" y2="37.4719" gradientUnits="userSpaceOnUse">
<stop stop-color="#00FFB8"/>
<stop offset="1" stop-color="#09BC8A"/>
</linearGradient>
</defs>
</svg>