<svg width="36" height="23" viewBox="0 0 36 23" fill="none" xmlns="http://www.w3.org/2000/svg">
<path d="M35.2618 11.1994C35.2618 10.1078 34.9657 9.35463 34.3734 8.93986L24.6238 0.622217C24.1378 0.207453 23.743 5.53131e-05 23.4393 5.53131e-05C23.2115 5.53131e-05 22.9913 0.131027 22.7787 0.392998C22.5661 0.65497 22.3307 1.09159 22.0725 1.70286C21.7991 2.33598 21.6625 2.87082 21.6625 3.30744C21.6625 3.76589 21.8295 4.19161 22.1636 4.58455C22.2851 4.73738 22.4901 4.93385 22.7787 5.174L29.8403 11.1994C29.6581 11.374 27.3042 13.3825 22.7787 17.2247C22.2927 17.6832 21.9814 18.0871 21.8447 18.4364C21.7384 18.6765 21.6853 18.9603 21.6853 19.2877C21.6853 19.637 21.8295 20.1501 22.1181 20.8268C22.5585 21.8966 22.9837 22.4314 23.3937 22.4314C23.6215 22.4314 23.8189 22.3768 23.986 22.2677C24.1378 22.2022 24.601 21.8311 25.3755 21.1543C26.15 20.4776 29.1417 17.9233 34.3506 13.4916C34.9581 13.055 35.2618 12.2909 35.2618 11.1994Z" fill="url(#paint0_linear_203_44)"/>
<path d="M34.3621 8.93986C34.9544 9.35462 35.2505 10.1078 35.2505 11.1994C35.2505 12.2909 34.9468 13.055 34.3393 13.4916C29.1304 17.9233 26.1387 20.4776 25.3642 21.1543C24.5897 21.8311 24.1265 22.2022 23.9747 22.2677C23.8076 22.3768 23.6102 22.4314 23.3824 22.4314C22.9724 22.4314 22.5472 21.8966 22.1068 20.8268C21.8182 20.1501 21.6739 19.637 21.6739 19.2877C21.6739 18.9603 21.7271 18.6765 21.8334 18.4364C21.9701 18.0871 22.2814 17.6832 22.7674 17.2247C27.2929 13.3825 29.6468 11.374 29.829 11.1994C32.5911 8.83411 32.802 7.71546 32.5187 7.37094L32.4298 7.29532C32.4625 7.31426 32.4927 7.33934 32.5187 7.37094L34.3621 8.93986Z" fill="#00FFB8"/>
<path d="M34.3621 8.93986C34.9544 9.35462 35.2505 10.1078 35.2505 11.1994C35.2505 12.2909 34.9468 13.055 34.3393 13.4916C29.1304 17.9233 26.1387 20.4776 25.3642 21.1543C24.5897 21.8311 24.1265 22.2022 23.9747 22.2677C23.8076 22.3768 23.6102 22.4314 23.3824 22.4314C22.9724 22.4314 22.5472 21.8966 22.1068 20.8268C21.8182 20.1501 21.6739 19.637 21.6739 19.2877C21.6739 18.9603 21.7271 18.6765 21.8334 18.4364C21.9701 18.0871 22.2814 17.6832 22.7674 17.2247C27.2929 13.3825 29.6468 11.374 29.829 11.1994C32.5911 8.83411 32.802 7.71546 32.5187 7.37094L32.4298 7.29532C32.4625 7.31426 32.4927 7.33934 32.5187 7.37094L34.3621 8.93986Z" fill="url(#paint1_linear_203_44)"/>
<path d="M4.95911e-05 11.1993C4.95911e-05 10.1078 0.296182 9.3546 0.888448 8.93983L10.638 0.622187C11.124 0.207422 11.5188 2.47955e-05 11.8226 2.47955e-05C12.0504 2.47955e-05 12.2706 0.130997 12.4832 0.392967C12.6958 0.65494 12.9312 1.09156 13.1893 1.70283C13.4627 2.33595 13.5994 2.87079 13.5994 3.30741C13.5994 3.76586 13.4323 4.19158 13.0982 4.58452C12.9767 4.73735 12.7717 4.93382 12.4832 5.17397L5.42154 11.1993C5.60378 11.374 7.95766 13.3824 12.4832 17.2247C12.9691 17.6831 13.2804 18.087 13.4171 18.4363C13.5234 18.6764 13.5766 18.9603 13.5766 19.2877C13.5766 19.637 13.4323 20.1501 13.1438 20.8268C12.7034 21.8965 12.2782 22.4314 11.8681 22.4314C11.6403 22.4314 11.4429 22.3768 11.2759 22.2677C11.124 22.2022 10.6608 21.831 9.88632 21.1543C9.11182 20.4775 6.12012 17.9233 0.911226 13.4916C0.303775 13.055 4.95911e-05 12.2909 4.95911e-05 11.1993Z" fill="url(#paint2_linear_203_44)"/>
<path d="M4.95911e-05 11.1993C4.95911e-05 10.1078 0.296182 9.3546 0.888448 8.93983L10.638 0.622187C11.124 0.207422 11.5188 2.47955e-05 11.8226 2.47955e-05C12.0504 2.47955e-05 12.2706 0.130997 12.4832 0.392967C12.6958 0.65494 12.9312 1.09156 13.1893 1.70283C13.4627 2.33595 13.5994 2.87079 13.5994 3.30741C13.5994 3.76586 13.4323 4.19158 13.0982 4.58452C12.9767 4.73735 12.7717 4.93382 12.4832 5.17397L5.42154 11.1993C5.60378 11.374 7.95766 13.3824 12.4832 17.2247C12.9691 17.6831 13.2804 18.087 13.4171 18.4363C13.5234 18.6764 13.5766 18.9603 13.5766 19.2877C13.5766 19.637 13.4323 20.1501 13.1438 20.8268C12.7034 21.8965 12.2782 22.4314 11.8681 22.4314C11.6403 22.4314 11.4429 22.3768 11.2759 22.2677C11.124 22.2022 10.6608 21.831 9.88632 21.1543C9.11182 20.4775 6.12012 17.9233 0.911226 13.4916C0.303775 13.055 4.95911e-05 12.2909 4.95911e-05 11.1993Z" fill="url(#paint3_linear_203_44)"/>
<path d="M0.899858 8.93983C0.307592 9.35459 0.0114594 10.1078 0.0114594 11.1993C0.0114594 12.2909 0.315185 13.055 0.922636 13.4916C6.13154 17.9233 9.12323 20.4775 9.89773 21.1543C10.6722 21.831 11.1354 22.2022 11.2873 22.2677C11.4543 22.3768 11.6517 22.4314 11.8795 22.4314C12.2896 22.4314 12.7148 21.8965 13.1552 20.8268C13.4437 20.1501 13.588 19.637 13.588 19.2877C13.588 18.9603 13.5348 18.6764 13.4286 18.4363C13.2919 18.087 12.9806 17.6831 12.4946 17.2247C7.96907 13.3824 5.61519 11.374 5.43295 11.1993C2.67087 8.83408 2.4599 7.71543 2.74327 7.37091L2.83212 7.29529C2.79941 7.31423 2.76926 7.33931 2.74327 7.37091L0.899858 8.93983Z" fill="#00FFB8"/>
<path d="M0.899858 8.93983C0.307592 9.35459 0.0114594 10.1078 0.0114594 11.1993C0.0114594 12.2909 0.315185 13.055 0.922636 13.4916C6.13154 17.9233 9.12323 20.4775 9.89773 21.1543C10.6722 21.831 11.1354 22.2022 11.2873 22.2677C11.4543 22.3768 11.6517 22.4314 11.8795 22.4314C12.2896 22.4314 12.7148 21.8965 13.1552 20.8268C13.4437 20.1501 13.588 19.637 13.588 19.2877C13.588 18.9603 13.5348 18.6764 13.4286 18.4363C13.2919 18.087 12.9806 17.6831 12.4946 17.2247C7.96907 13.3824 5.61519 11.374 5.43295 11.1993C2.67087 8.83408 2.4599 7.71543 2.74327 7.37091L2.83212 7.29529C2.79941 7.31423 2.76926 7.33931 2.74327 7.37091L0.899858 8.93983Z" fill="#00FFB8"/>
<defs>
<linearGradient id="paint0_linear_203_44" x1="21.6625" y1="0.828828" x2="37.8699" y2="15.0354" gradientUnits="userSpaceOnUse">
<stop stop-color="#00FFB8"/>
<stop offset="1" stop-color="#09BC8A"/>
</linearGradient>
<linearGradient id="paint1_linear_203_44" x1="28.4622" y1="22.4314" x2="35.2505" y2="8.75628" gradientUnits="userSpaceOnUse">
<stop stop-color="#00FFB8"/>
<stop offset="1" stop-color="#00FFB8" stop-opacity="0"/>
</linearGradient>
<linearGradient id="paint2_linear_203_44" x1="13.5994" y1="0.828797" x2="-2.60802" y2="15.0354" gradientUnits="userSpaceOnUse">
<stop stop-color="#00FFB8"/>
<stop offset="1" stop-color="#09BC8A"/>
</linearGradient>
<linearGradient id="paint3_linear_203_44" x1="13.5994" y1="0.828797" x2="-2.60802" y2="15.0354" gradientUnits="userSpaceOnUse">
<stop stop-color="#00FFB8"/>
<stop offset="1" stop-color="#09BC8A"/>
</linearGradient>
</defs>
</svg>
